<svg width="68" height="68" viewBox="0 0 68 68" fill="none" xmlns="http://www.w3.org/2000/svg">
<circle cx="33.5607" cy="34.2587" r="33.5607" fill="#FFFDFB"/>
<path d="M25.2648 15.0272H41.1024C47.1358 15.0272 52.0379 19.9293 52.0379 25.9627V41.8003C52.0379 44.7006 50.8858 47.4821 48.835 49.5329C46.7841 51.5837 44.0027 52.7358 41.1024 52.7358H25.2648C19.2314 52.7358 14.3293 47.8337 14.3293 41.8003V25.9627C14.3293 23.0624 15.4814 20.281 17.5322 18.2302C19.583 16.1794 22.3645 15.0272 25.2648 15.0272V15.0272ZM24.8877 18.7981C23.0875 18.7981 21.3611 19.5132 20.0882 20.7861C18.8152 22.059 18.1001 23.7855 18.1001 25.5856V42.1774C18.1001 45.9294 21.1357 48.965 24.8877 48.965H41.4795C43.2796 48.965 45.0061 48.2499 46.279 46.9769C47.5519 45.704 48.267 43.9776 48.267 42.1774V25.5856C48.267 21.8336 45.2315 18.7981 41.4795 18.7981H24.8877ZM43.0821 21.6262C43.7071 21.6262 44.3066 21.8745 44.7486 22.3165C45.1906 22.7585 45.4389 23.358 45.4389 23.983C45.4389 24.6081 45.1906 25.2075 44.7486 25.6495C44.3066 26.0915 43.7071 26.3398 43.0821 26.3398C42.457 26.3398 41.8576 26.0915 41.4156 25.6495C40.9736 25.2075 40.7253 24.6081 40.7253 23.983C40.7253 23.358 40.9736 22.7585 41.4156 22.3165C41.8576 21.8745 42.457 21.6262 43.0821 21.6262ZM33.1836 24.4544C35.6838 24.4544 38.0816 25.4476 39.8496 27.2155C41.6175 28.9835 42.6107 31.3813 42.6107 33.8815C42.6107 36.3818 41.6175 38.7796 39.8496 40.5475C38.0816 42.3155 35.6838 43.3087 33.1836 43.3087C30.6833 43.3087 28.2855 42.3155 26.5176 40.5475C24.7496 38.7796 23.7564 36.3818 23.7564 33.8815C23.7564 31.3813 24.7496 28.9835 26.5176 27.2155C28.2855 25.4476 30.6833 24.4544 33.1836 24.4544V24.4544ZM33.1836 28.2252C31.6834 28.2252 30.2447 28.8212 29.184 29.8819C28.1232 30.9427 27.5273 32.3814 27.5273 33.8815C27.5273 35.3817 28.1232 36.8204 29.184 37.8811C30.2447 38.9419 31.6834 39.5378 33.1836 39.5378C34.6837 39.5378 36.1224 38.9419 37.1832 37.8811C38.2439 36.8204 38.8399 35.3817 38.8399 33.8815C38.8399 32.3814 38.2439 30.9427 37.1832 29.8819C36.1224 28.8212 34.6837 28.2252 33.1836 28.2252Z" fill="#F39C99"/>
</svg>
