<svg width="71" height="71" viewBox="0 0 71 71" fill="none" xmlns="http://www.w3.org/2000/svg">
<circle cx="35.1891" cy="35.1891" r="35.1891" fill="#FFFDFB"/>
<path d="M39.3406 45.5678H24.8102V41.4163H39.3406V45.5678ZM45.5678 37.2648H24.8102V33.1133H45.5678V37.2648ZM45.5678 28.9618H24.8102V24.8102H45.5678V28.9618ZM49.7194 16.5072H20.6587C18.3546 16.5072 16.5072 18.3546 16.5072 20.6587V49.7194C16.5072 50.8204 16.9446 51.8764 17.7232 52.6549C18.5017 53.4335 19.5577 53.8709 20.6587 53.8709H49.7194C50.8204 53.8709 51.8764 53.4335 52.6549 52.6549C53.4335 51.8764 53.8709 50.8204 53.8709 49.7194V20.6587C53.8709 18.3546 52.0027 16.5072 49.7194 16.5072Z" fill="#F39C99"/>
</svg>
