<svg width="71" height="71" viewBox="0 0 71 71" fill="none" xmlns="http://www.w3.org/2000/svg">
<circle cx="35.1891" cy="35.1891" r="35.1891" fill="#FFFDFB"/>
<path d="M31.1562 40.8939L41.6215 34.7937L31.1562 28.6935V40.8939ZM54.4663 24.9724C54.7285 25.9281 54.91 27.2091 55.0309 28.8359C55.1721 30.4626 55.2326 31.8656 55.2326 33.0857L55.3536 34.7937C55.3536 39.2469 55.0309 42.5206 54.4663 44.615C53.9622 46.4451 52.7927 47.6245 50.9779 48.1328C50.0301 48.3971 48.296 48.5802 45.6343 48.7022C43.0129 48.8445 40.6133 48.9055 38.3952 48.9055L35.1891 49.0275C26.7401 49.0275 21.4772 48.7022 19.4002 48.1328C17.5854 47.6245 16.4159 46.4451 15.9118 44.615C15.6496 43.6593 15.4682 42.3783 15.3472 40.7516C15.206 39.1249 15.1455 37.7218 15.1455 36.5018L15.0245 34.7937C15.0245 30.3406 15.3472 27.0668 15.9118 24.9724C16.4159 23.1424 17.5854 21.963 19.4002 21.4546C20.348 21.1903 22.0821 21.0073 24.7438 20.8853C27.3652 20.7429 29.7648 20.6819 31.9829 20.6819L35.1891 20.5599C43.638 20.5599 48.9009 20.8853 50.9779 21.4546C52.7927 21.963 53.9622 23.1424 54.4663 24.9724Z" fill="#F39C99"/>
</svg>
